<svg height="512pt" viewBox="0 -31 512 512" width="512pt" xmlns="http://www.w3.org/2000/svg"><path d="m457.6875 176.59375-43.277344-23.722656c-9.972656-5.464844-22.207031 1.761718-22.207031 13.152344v165.488281h-30.050781c-32.945313 0-59.75 26.804687-59.75 59.75 0 32.34375 26.085937 59.75 60.050781 59.75 32.945313 0 59.75-26.804688 59.75-59.75 0-10.449219 0-190.015625 0-199.910157l21.066406 11.550782c23.886719 13.097656 38.730469 38.105468 38.730469 65.265625v32.105469c0 8.28125 6.714844 15 15 15s15-6.71875 15-15v-32.105469c0-38.121094-20.8125-73.207031-54.3125-91.574219zm-65.488281 214.667969c0 15.964843-12.792969 29.75-30.046875 29.75-16.402344 0-29.75-13.347657-29.75-29.75 0-16.402344 13.347656-29.75 29.75-29.75h30.046875zm0 0"/><path d="m332.761719 242.574219c0-21.273438-.359375-151.578125-.359375-227.570313 0-9.445312-8.644532-16.5625-17.9375-14.710937l-188.859375 37.71875c-7.011719 1.402343-12.0625 7.558593-12.0625 14.710937v155.992188h-41.964844c-39.46875 0-71.578125 32.109375-71.578125 71.578125 0 38.851562 31.34375 71.578125 71.957031 71.578125 39.46875 0 71.578125-32.109375 71.578125-71.578125 0 0 .007813 1.503906.007813-139.828125l158.859375-31.667969v62.199219h-41.597656c-39.46875 0-71.578126 32.105468-71.578126 71.578125 0 38.847656 31.339844 71.574219 71.957032 71.574219 39.46875.003906 71.578125-32.105469 71.578125-71.574219zm-219.226563 37.71875c0 22.371093-17.953125 41.578125-41.957031 41.578125-22.925781 0-41.578125-18.652344-41.578125-41.578125s18.652344-41.578125 41.578125-41.578125h41.957031zm30.007813-170.421875v-44.847656l158.859375-31.726563v44.910156zm117.261719 174.28125c-22.925782 0-41.578126-18.652344-41.578126-41.578125s18.652344-41.578125 41.578126-41.578125h41.597656c0 44.652344.359375 8.15625.359375 41.578125 0 22.375-17.953125 41.578125-41.957031 41.578125zm0 0"/></svg>